<svg xmlns="http://www.w3.org/2000/svg" viewBox="0 0 1254 1254" width="1254" height="1254" role="img" aria-labelledby="title desc">
<title id="title">Pazaak cards icon</title>
<desc id="desc">Vectorized three-card Pazaak icon with plus and minus symbols.</desc>
<g shape-rendering="geometricPrecision">
<path d="M 443 108 L 435 113 L 426 122 L 421 131 L 418 143 L 399 428 L 394 480 L 386 604 L 373 768 L 378 788 L 391 803 L 402 809 L 410 811 L 427 811 L 533 819 L 594 822 L 787 836 L 801 835 L 812 830 L 823 820 L 827 814 L 832 798 L 853 480 L 875 186 L 875 164 L 869 149 L 856 136 L 846 131 L 834 129 L 802 128 L 463 104 L 452 105 Z" fill="#fff"/>
<path d="M 364 401 L 344 407 L 87 507 L 76 513 L 67 522 L 61 534 L 59 543 L 59 552 L 61 560 L 176 851 L 268 1090 L 273 1099 L 283 1109 L 292 1114 L 303 1117 L 313 1117 L 322 1115 L 582 1012 L 583 1009 L 577 998 L 573 985 L 571 963 L 576 940 L 595 901 L 577 856 L 410 847 L 398 845 L 385 841 L 369 832 L 357 821 L 344 802 L 338 784 L 337 761 L 344 683 L 354 535 L 365 402 Z" fill="#fff"/>
<path d="M 914 434 L 896 440 L 893 442 L 888 518 L 878 642 L 880 643 L 928 625 L 941 622 L 1026 663 L 1030 667 L 1041 739 L 1036 752 L 964 899 L 961 902 L 866 933 L 799 900 L 795 896 L 779 871 L 711 866 L 669 954 L 671 962 L 783 1017 L 787 1023 L 791 1035 L 790 1037 L 781 1034 L 659 973 L 653 952 L 691 873 L 694 864 L 665 862 L 655 863 L 613 950 L 610 962 L 610 972 L 615 988 L 619 994 L 631 1005 L 900 1137 L 907 1139 L 923 1139 L 938 1133 L 949 1123 L 953 1117 L 1176 652 L 1197 611 L 1199 604 L 1199 588 L 1192 571 L 1179 558 L 939 439 L 929 435 Z" fill="#fff"/>
<path d="M 938 638 L 879 659 L 877 661 L 868 798 L 864 819 L 853 840 L 835 858 L 817 868 L 796 872 L 805 886 L 866 916 L 870 916 L 951 889 L 953 887 L 1025 739 L 1016 677 L 1013 674 Z" fill="#fff"/>
<path d="M 698 268 L 700 270 L 681 358 L 684 360 L 761 364 L 763 366 L 748 439 L 746 441 L 667 436 L 660 471 L 656 475 L 584 519 L 573 520 L 571 518 L 589 432 L 560 429 L 512 427 L 508 425 L 522 352 L 524 350 L 540 350 L 604 354 L 622 266 L 624 264 Z" fill="#000"/>
<path d="M 748 556 L 732 630 L 479 614 L 477 612 L 491 543 L 493 539 L 593 545 L 639 516 L 651 510 L 652 514 L 645 548 L 746 554 Z" fill="#000"/>
<path d="M 246 488 L 255 493 L 271 506 L 268 507 L 254 503 L 249 503 L 123 552 L 121 554 L 119 562 L 207 784 L 308 1046 L 311 1051 L 321 1053 L 446 1002 L 457 981 L 459 982 L 463 991 L 457 1009 L 452 1016 L 319 1070 L 299 1062 L 295 1056 L 248 932 L 103 564 L 105 553 L 112 540 Z" fill="#000"/>
<path d="M 1027 529 L 1148 588 L 1151 592 L 1156 611 L 927 1087 L 921 1092 L 903 1098 L 867 1080 L 866 1078 L 883 1072 L 886 1072 L 903 1081 L 908 1081 L 914 1078 L 1140 610 L 1139 603 L 1136 599 L 1025 545 L 991 556 L 987 555 L 996 539 Z" fill="#000"/>
<path d="M 805 612 L 806 613 L 806 625 L 805 626 L 804 655 L 803 656 L 803 670 L 802 671 L 802 683 L 801 684 L 801 699 L 800 700 L 800 712 L 799 713 L 799 726 L 798 727 L 798 740 L 797 741 L 797 754 L 796 755 L 795 778 L 778 794 L 759 794 L 758 793 L 743 793 L 742 792 L 727 792 L 726 791 L 712 791 L 711 790 L 682 789 L 680 787 L 694 774 L 704 774 L 705 775 L 719 775 L 720 776 L 734 776 L 735 777 L 748 777 L 749 778 L 764 778 L 765 779 L 772 779 L 780 772 L 781 748 L 782 747 L 782 734 L 783 733 L 783 720 L 784 719 L 784 705 L 785 704 L 785 690 L 786 689 L 786 676 L 787 675 L 788 645 L 789 644 L 789 631 L 790 630 L 790 626 Z" fill="#000"/>
<path d="M 570 152 L 571 153 L 571 155 L 557 167 L 479 162 L 472 168 L 471 170 L 471 185 L 470 186 L 469 214 L 468 215 L 468 229 L 467 230 L 467 244 L 466 245 L 466 260 L 465 261 L 465 275 L 464 276 L 464 290 L 463 291 L 463 306 L 462 307 L 462 310 L 449 323 L 447 324 L 446 323 L 446 310 L 447 309 L 447 295 L 448 294 L 448 280 L 449 279 L 449 264 L 450 263 L 450 248 L 451 247 L 452 219 L 453 218 L 453 206 L 454 205 L 454 190 L 455 189 L 456 163 L 464 155 L 465 155 L 475 146 L 482 146 L 483 147 L 498 147 L 499 148 L 512 148 L 513 149 L 527 149 L 528 150 L 542 150 L 543 151 Z" fill="#000"/>
<path d="M 419 690 L 420 690 L 425 695 L 425 696 L 434 705 L 434 706 L 495 773 L 494 775 L 471 774 L 470 773 L 455 773 L 454 772 L 439 772 L 438 771 L 428 771 L 421 767 L 418 764 L 414 756 L 414 745 L 415 744 L 415 731 L 416 730 L 417 701 L 418 700 L 418 691 Z" fill="#000"/>
<path d="M 756 165 L 766 165 L 767 166 L 780 166 L 781 167 L 796 167 L 797 168 L 821 169 L 827 172 L 832 177 L 835 183 L 835 200 L 834 201 L 834 216 L 833 217 L 832 245 L 830 249 L 827 247 L 827 246 L 798 215 L 798 214 L 790 206 L 790 205 L 782 197 L 782 196 L 772 186 L 772 185 L 765 178 L 765 177 L 756 168 L 755 166 Z" fill="#000"/>
<path d="M 204 566 L 208 572 L 209 577 L 215 590 L 220 589 L 225 586 L 227 586 L 238 581 L 241 585 L 242 590 L 247 601 L 247 603 L 246 604 L 244 604 L 239 607 L 237 607 L 224 613 L 226 620 L 228 623 L 228 625 L 233 636 L 230 639 L 225 640 L 214 645 L 212 645 L 210 643 L 208 636 L 206 633 L 205 628 L 202 622 L 200 622 L 192 626 L 187 627 L 179 631 L 175 625 L 174 620 L 170 612 L 170 609 L 175 606 L 180 605 L 183 603 L 185 603 L 188 601 L 190 601 L 193 599 L 192 595 L 190 592 L 190 590 L 185 580 L 184 575 L 186 573 L 191 572 L 196 569 L 201 568 Z" fill="#000"/>
<path d="M 878 969 L 896 979 L 889 994 L 885 1000 L 885 1003 L 906 1014 L 906 1017 L 902 1023 L 898 1032 L 895 1035 L 893 1033 L 873 1023 L 863 1043 L 861 1045 L 859 1045 L 851 1041 L 849 1039 L 847 1039 L 843 1037 L 841 1035 L 847 1022 L 849 1020 L 852 1014 L 852 1012 L 850 1010 L 835 1003 L 832 1001 L 831 999 L 839 983 L 842 980 L 864 991 L 876 969 Z" fill="#000"/>
<path d="M 374 960 L 378 968 L 378 970 L 382 977 L 381 979 L 373 983 L 371 983 L 364 987 L 362 987 L 342 997 L 340 997 L 333 1001 L 330 1001 L 328 999 L 327 995 L 321 983 L 323 981 L 327 980 L 332 977 L 334 977 L 343 972 L 345 972 L 356 966 L 358 966 L 372 959 Z" fill="#000"/>
<path d="M 1047 601 L 1051 598 L 1096 621 L 1098 623 L 1098 625 L 1094 631 L 1091 639 L 1089 641 L 1087 641 L 1041 618 L 1040 617 L 1040 615 Z" fill="#000"/>
</g>
</svg>